<?xml version="1.0"?>
<svg xmlns="http://www.w3.org/2000/svg" width="512" height="512" viewBox="0 0 128 128"><g><path d="M121.25,14.748H6.75A6.758,6.758,0,0,0,0,21.5v85.528a6.233,6.233,0,0,0,6.226,6.226H121.774A6.233,6.233,0,0,0,128,107.026V21.5A6.758,6.758,0,0,0,121.25,14.748ZM3.5,21.5a3.254,3.254,0,0,1,3.25-3.25h114.5a3.254,3.254,0,0,1,3.25,3.25V33.623H3.5Zm121,85.528a2.729,2.729,0,0,1-2.726,2.726H6.226A2.729,2.729,0,0,1,3.5,107.026v-69.9h121Z"/><path d="M118.25,24.186H49.687a1.75,1.75,0,0,0,0,3.5H118.25a1.75,1.75,0,0,0,0-3.5Z"/><path d="M14.377,24.186H9.75a1.75,1.75,0,0,0,0,3.5h4.627a1.75,1.75,0,0,0,0-3.5Z"/><path d="M27.69,24.186H23.062a1.75,1.75,0,0,0,0,3.5H27.69a1.75,1.75,0,1,0,0-3.5Z"/><path d="M41,24.186H36.375a1.75,1.75,0,0,0,0,3.5H41a1.75,1.75,0,0,0,0-3.5Z"/><path d="M50.652,76.258A18.856,18.856,0,0,0,64,81.736,19.271,19.271,0,0,0,83.057,62.68a19.057,19.057,0,1,0-32.4,13.578ZM61.57,66.006a4.125,4.125,0,1,1,4.861,0,1.75,1.75,0,0,0,1.034,3.161h.384a6.213,6.213,0,0,1,5.982,4.441l.267.883a15.487,15.487,0,0,1-20.2,0l.267-.883a6.214,6.214,0,0,1,5.983-4.441h.383a1.75,1.75,0,0,0,1.035-3.161ZM64,47.123a15.539,15.539,0,0,1,12.784,24.4A9.665,9.665,0,0,0,70.8,66.116a7.625,7.625,0,1,0-13.6,0,9.665,9.665,0,0,0-5.985,5.406A15.539,15.539,0,0,1,64,47.123Z"/><path d="M40.375,103.252h47.25a5.756,5.756,0,0,0,5.75-5.75V93.375a5.756,5.756,0,0,0-5.75-5.75H40.375a5.757,5.757,0,0,0-5.75,5.75V97.5A5.757,5.757,0,0,0,40.375,103.252Zm47.25-12.127a2.253,2.253,0,0,1,2.25,2.25V97.5a2.253,2.253,0,0,1-2.25,2.25H79.25V91.125Zm-49.5,2.25a2.253,2.253,0,0,1,2.25-2.25H75.75v8.627H40.375a2.253,2.253,0,0,1-2.25-2.25Z"/></g></svg>
