<svg id="Capa_1" enable-background="new 0 0 512.25 512.25" height="512" viewBox="0 0 512.25 512.25" width="512" xmlns="http://www.w3.org/2000/svg"><g><path d="m149.382 124.699h47.653c27.739 0 52.506 17.587 61.629 43.764 1.079 3.095 3.979 5.034 7.082 5.034.818 0 1.651-.135 2.468-.42 3.912-1.363 5.977-5.639 4.614-9.55-11.221-32.196-41.68-53.828-75.793-53.828h-47.653c-4.142 0-7.5 3.358-7.5 7.5s3.358 7.5 7.5 7.5zm113.338 66.835c0 4.142 3.358 7.5 7.5 7.5s7.5-3.358 7.5-7.5-3.358-7.5-7.5-7.5-7.5 3.358-7.5 7.5zm-67.589 34.379c-19.833 0-35.968-16.135-35.968-35.968 0-4.142-3.358-7.5-7.5-7.5s-7.5 3.358-7.5 7.5c0 28.104 22.864 50.968 50.968 50.968s50.968-22.864 50.968-50.968-22.864-50.968-50.968-50.968h-160.891c-4.142 0-7.5 3.358-7.5 7.5s3.358 7.5 7.5 7.5h160.892c19.833 0 35.968 16.135 35.968 35.968s-16.136 35.968-35.969 35.968zm309.619 248.574h-82.403l10.146-39.204c3.452.505 6.839.801 10.205.801 6.585 0 13.093-1.122 19.857-3.963 16.606-6.974 27.218-21.152 32.337-33.376.103.002.213.017.315.017 2.536 0 4.796-.591 6.762-1.772 3.093-1.859 5.099-5.042 5.647-8.958 4.587-32.631 4.885-63.424 4.523-91.84-.616-48.282-5.341-95.814-14.043-141.274-2.118-11.066-9.356-19.223-19.37-21.821-10.035-2.594-20.697 1.257-27.83 10.046-22.892 28.213-44.449 58.617-64.277 90.616-2.353-26.781-6-53.142-10.92-78.841-2.122-11.073-9.363-19.23-19.37-21.82-10.032-2.597-20.693 1.253-27.828 10.045-29.019 35.769-55.833 74.942-79.698 116.432-5.144 8.942-6.686 19.086-4.461 28.852-5.333 9.933-10.569 20.096-15.575 30.275-1.828 3.717-.297 8.212 3.42 10.04 1.064.523 2.192.771 3.304.771 2.769 0 5.431-1.54 6.735-4.192 3.309-6.727 6.725-13.444 10.196-20.096 3.709 4.717 8.347 8.615 13.551 11.215 15.817 7.903 28.832 2.38 38.335-1.653 7.198-3.056 11.463-4.698 15.438-2.974 8.536 3.711 9.152 10.051 9.733 24.037.521 12.541 1.169 28.149 11.875 43.683 2.989 4.336 8.691 9.43 14.88 13.293.675.421 1.336.808 1.992 1.185-.838 1.9-1.858 3.852-3.042 5.796-.003.005-.007.01-.011.015-.008.012-.013.024-.021.036-4.442 7.278-11.315 14.45-20.802 18.434-8.812 3.702-17.363 3.32-27.874 1.114-.005-.001-.01-.004-.016-.005-.052-.013-.103-.02-.155-.032-4.751-1.004-9.901-2.374-15.659-3.908-2.336-.622-4.745-1.264-7.236-1.908-21.611-5.594-38.29-13.074-46.964-21.063-10.515-9.685-12.72-27.658-5.362-43.71 1.726-3.765.073-8.217-3.692-9.942-3.767-1.727-8.217-.073-9.943 3.692-10.19 22.229-6.639 46.741 8.835 60.993 7.306 6.73 18.336 12.851 32.433 18.065l-5.171 17.88c-1.176-.887-2.379-1.738-3.635-2.516-13.458-8.334-25.397-6.629-40.509-4.473-7.818 1.115-16.679 2.379-27.815 2.669-26.184.67-44.91-4.639-61.432-9.332-20.898-5.937-38.947-11.062-63.424-2.567-13.763 4.777-24.498 12.268-31.044 21.662-5.852 8.399-8.99 18.679-9.147 29.577h-8.79c-4.142 0-7.5 3.357-7.5 7.5s3.358 7.5 7.5 7.5h497c4.142 0 7.5-3.357 7.5-7.5s-3.358-7.501-7.5-7.501zm-128.656-76.098c4.966-1.173 8.377-5.046 9.125-10.361 4.586-32.585 4.884-63.394 4.523-91.833-.156-12.223-.577-24.398-1.257-36.504 22.402-38.103 47.307-74.129 74.057-107.097 3.389-4.173 8.152-6.08 12.423-4.977 4.32 1.121 7.381 4.81 8.397 10.12 8.537 44.596 13.172 91.243 13.777 138.646.345 27.046.085 56.254-4.019 86.941-.185-.06-.382-.127-.594-.204-6.082-2.216-13.821-8.323-16.422-12.099-8.249-11.97-8.753-24.081-9.24-35.793-.577-13.855-1.229-29.56-18.743-37.168-10.075-4.384-19.216-.507-27.281 2.916-4.791 2.033-9.317 3.953-14.042 4.397-4.124.388-7.153 4.045-6.766 8.169.387 4.123 4.046 7.146 8.169 6.765 7.041-.661 13.127-3.244 18.498-5.523 7.198-3.055 11.463-4.697 15.44-2.968 8.538 3.709 9.155 10.049 9.737 24.036.521 12.54 1.17 28.146 11.875 43.68 3.487 5.062 10.146 10.665 16.866 14.485-3.984 9.026-11.832 19.216-23.873 24.273-12.836 5.391-25.115 2.121-43.702-2.83-2.336-.622-4.745-1.264-7.236-1.908-13.63-3.528-25.332-7.812-34.317-12.537.355-.762.691-1.519 1.005-2.268.089.001.184.014.272.014 1.166 0 2.276-.124 3.328-.372zm-22.387-27.372c-8.25-11.968-8.752-24.079-9.239-35.791-.575-13.855-1.228-29.559-18.741-37.172-3.212-1.396-6.328-1.952-9.345-1.952-6.448 0-12.44 2.543-17.932 4.875-8.664 3.676-16.146 6.853-25.77 2.043-6.087-3.042-11.177-9.27-13.281-16.253-1.401-4.649-2.121-11.843 2.407-19.715 23.468-40.8 49.827-79.311 78.344-114.46 3.387-4.174 8.15-6.08 12.421-4.974 4.318 1.118 7.378 4.807 8.396 10.12 8.539 44.602 13.174 91.25 13.777 138.648.396 31.246-.146 58.123-4.024 86.98-.006-.002-.013-.005-.019-.007-.342-.157-.697-.295-1.07-.402-4.834-1.97-12.674-7.224-15.924-11.94zm-322.178 103.47c.1-6.416 1.587-13.995 6.469-21.003 4.723-6.778 12.903-12.334 23.654-16.065 20.009-6.943 35.189-2.633 54.408 2.826 17.555 4.986 37.452 10.649 65.92 9.896 12.004-.312 21.729-1.699 29.544-2.813 13.968-1.992 21.663-3.092 30.494 2.377 7.885 4.882 13.704 13.202 17.369 24.782zm252.929 0h-9.478c-2.242-8.582-5.422-15.998-9.522-22.208l7.53-26.039c2.175.628 19.619 5.264 22.411 5.969zm83.187 0h-67.693l10.146-39.204c3.452.505 6.839.801 10.204.801 6.585 0 13.093-1.122 19.858-3.963 9.942-4.176 17.72-10.939 23.472-18.314 5.183 2.78 11.111 5.411 17.689 7.838zm39.208 0h-23.714l12.468-48.176c2.104.606 19.396 5.193 22.187 5.898zm-399.353-349.788h80.918c28.104 0 50.968-22.864 50.968-50.968s-22.864-50.968-50.968-50.968-50.968 22.864-50.968 50.968c0 4.142 3.358 7.5 7.5 7.5s7.5-3.358 7.5-7.5c0-19.833 16.135-35.968 35.968-35.968s35.968 16.135 35.968 35.968-16.135 35.968-35.968 35.968h-80.918c-4.142 0-7.5 3.358-7.5 7.5s3.358 7.5 7.5 7.5zm0 59.156h68.418c19.833 0 35.968 16.135 35.968 35.968s-16.135 35.968-35.968 35.968-35.968-16.135-35.968-35.968c0-4.142-3.358-7.5-7.5-7.5s-7.5 3.358-7.5 7.5c0 28.104 22.864 50.968 50.968 50.968s50.968-22.864 50.968-50.968-22.864-50.968-50.968-50.968h-68.418c-4.142 0-7.5 3.358-7.5 7.5s3.358 7.5 7.5 7.5z"/></g></svg>